<svg width="24" height="26" viewBox="0 0 24 26" fill="none" xmlns="http://www.w3.org/2000/svg">
<path d="M21.75 6.47843C18.1425 6.12093 14.5133 5.93677 10.895 5.93677C8.75 5.93677 6.605 6.0451 4.46 6.26177L2.25 6.47843" stroke="#FE5472" stroke-width="2" stroke-linecap="round" stroke-linejoin="round"/>
<path d="M8.20825 5.38425L8.44659 3.96508C8.61992 2.93591 8.74992 2.16675 10.5808 2.16675H13.4191C15.2499 2.16675 15.3908 2.97925 15.5533 3.97591L15.7916 5.38425" stroke="#FE5472" stroke-width="2" stroke-linecap="round" stroke-linejoin="round"/>
<path d="M19.4208 9.90161L18.7166 20.8108C18.5974 22.5116 18.4999 23.8333 15.4774 23.8333H8.52243C5.49993 23.8333 5.40243 22.5116 5.28327 20.8108L4.5791 9.90161" stroke="#FE5472" stroke-width="2" stroke-linecap="round" stroke-linejoin="round"/>
<path d="M10.1909 17.875H13.7984" stroke="#FE5472" stroke-width="2" stroke-linecap="round" stroke-linejoin="round"/>
<path d="M9.29175 13.5417H14.7084" stroke="#FE5472" stroke-width="2" stroke-linecap="round" stroke-linejoin="round"/>
</svg>
